# File created by Blade
# Date/Time:  Thu Jan 22 16:21:39 2015
# Frame Rate: 120.000 fps
#------------------------------------------------------
:FULLY-SPECIFIED
:DEGREES
1213
root -14.288120 34.023404 -4.653892 1.617908 12.054636 7.770905
RightUpLeg -24.328054 2.672223 13.618774
RightLeg 19.280535 -0.000000 -0.000000
RightFoot -5.146083 -24.644320 1.713896
RightToeBase 8.612193 -0.000000 -0.000000
LeftUpLeg 18.621116 -3.576763 -29.331273
LeftLeg -4.402324 -0.000000 0.000000
LeftFoot -10.182684 1.848252 -4.157429
LeftToeBase 1.289378 -0.000000 -0.000000
Spine 12.905503 -8.174220 33.167518
RightShoulder 3.466551 -15.413885 -5.920278
RightArm 6.457420 24.072915 63.757914
RightForeArm 21.325347 -0.000000 19.409884
RightHand 9.256012 -0.000000 -21.892323
RightHandThumb1 -24.326973 -0.000000 -32.862282
LeftShoulder -22.788451 18.965451 38.773980
LeftArm 57.689139 -77.611636 -42.227926
LeftForeArm 12.744567 0.000000 14.577145
LeftHand -14.615196 -0.000000 15.534217
LeftHandThumb1 -26.253704 0.000000 33.147579
Head 13.959705 1.369985 44.366121
1214
root -14.289834 34.024252 -4.665060 1.565851 12.018825 7.812075
RightUpLeg -24.269537 2.709711 13.574855
RightLeg 19.260716 -0.000000 -0.000000
RightFoot -5.135466 -24.662615 1.734319
RightToeBase 8.770587 -0.000000 -0.000000
LeftUpLeg 18.628342 -3.475125 -29.357861
LeftLeg -4.376699 -0.000000 0.000000
LeftFoot -10.183871 1.794177 -4.202547
LeftToeBase 1.360228 -0.000000 -0.000000
Spine 12.967362 -8.244261 33.301406
RightShoulder 3.674248 -15.437146 -5.751811
RightArm 6.666767 23.750783 63.989794
RightForeArm 21.342973 -0.000000 19.256639
RightHand 9.202805 0.000000 -21.501263
RightHandThumb1 -24.326973 -0.000000 -32.862282
LeftShoulder -22.768567 18.823629 38.998844
LeftArm 59.004323 -77.587271 -42.859620
LeftForeArm 12.889730 -0.000000 14.718758
LeftHand -14.617082 0.000000 15.822287
LeftHandThumb1 -26.253704 0.000000 33.147579
Head 14.232367 0.950739 44.753617
1215
root -14.289988 34.025029 -4.676114 1.531190 11.992864 7.852560
RightUpLeg -24.218363 2.737545 13.537029
RightLeg 19.195947 -0.000000 -0.000000
RightFoot -5.121137 -24.731318 1.773679
RightToeBase 8.765870 -0.000000 -0.000000
LeftUpLeg 18.608672 -3.381782 -29.386379
LeftLeg -4.321518 -0.000000 0.000000
LeftFoot -10.184965 1.770363 -4.187449
LeftToeBase 1.320680 -0.000000 -0.000000
Spine 13.012638 -8.274677 33.445366
RightShoulder 3.798631 -15.406903 -5.585798
RightArm 6.855343 23.412682 64.237955
RightForeArm 21.428201 0.000000 19.101321
RightHand 9.210203 0.000000 -21.158540
RightHandThumb1 -24.326973 -0.000000 -32.862282
LeftShoulder -22.733373 18.613334 39.235964
LeftArm 60.414361 -77.549495 -43.549465
LeftForeArm 13.256292 0.000000 14.831921
LeftHand -14.747799 0.000000 15.870540
LeftHandThumb1 -26.253704 0.000000 33.147579
Head 14.415738 0.465802 45.110621
1216
root -14.289271 34.025990 -4.685072 1.481927 11.966134 7.875905
RightUpLeg -24.137262 2.784946 13.500539
RightLeg 19.130282 -0.000000 -0.000000
RightFoot -5.062897 -24.753568 1.689035
RightToeBase 8.621676 -0.000000 -0.000000
LeftUpLeg 18.595904 -3.322422 -29.415417
LeftLeg -4.249051 -0.000000 0.000000
LeftFoot -10.192776 1.772842 -4.160159
LeftToeBase 1.236451 -0.000000 -0.000000
Spine 13.078674 -8.313643 33.605503
RightShoulder 3.889864 -15.397504 -5.459717
RightArm 7.087877 23.097511 64.534017
RightForeArm 21.528688 -0.000000 18.987764
RightHand 9.242032 0.000000 -20.891154
RightHandThumb1 -24.326973 -0.000000 -32.862282
LeftShoulder -22.768126 18.533796 39.362897
LeftArm 62.703262 -77.633711 -45.052109
LeftForeArm 13.718120 0.000000 14.940577
LeftHand -14.879743 -0.000000 15.794363
LeftHandThumb1 -26.253704 0.000000 33.147579
Head 14.553500 0.063846 45.451892
